<svg xmlns="http://www.w3.org/2000/svg" width="1134" height="287" fill="none" viewBox="0 0 1134 287">
  <path fill="#000" d="M365.795 38.91V132h-16.863V38.91h16.863ZM507.182 132V38.91h16.863v39.408h43.137V38.91h16.909V132h-16.909V92.454h-43.137V132h-16.863Zm145.841-67.5c-.425-3.97-2.212-7.06-5.364-9.273-3.121-2.212-7.182-3.318-12.182-3.318-3.515 0-6.53.53-9.045 1.591-2.515 1.06-4.44 2.5-5.773 4.318-1.333 1.818-2.015 3.894-2.045 6.228 0 1.939.439 3.62 1.318 5.045.909 1.424 2.136 2.636 3.682 3.636 1.545.97 3.257 1.788 5.136 2.455a55.252 55.252 0 0 0 5.682 1.682l8.727 2.181a60.095 60.095 0 0 1 10.136 3.319c3.273 1.394 6.197 3.151 8.773 5.272a23.397 23.397 0 0 1 6.182 7.682c1.515 3 2.273 6.515 2.273 10.546 0 5.454-1.394 10.257-4.182 14.409-2.788 4.121-6.818 7.348-12.091 9.682-5.242 2.303-11.591 3.454-19.045 3.454-7.243 0-13.531-1.121-18.864-3.364-5.303-2.242-9.455-5.515-12.455-9.818-2.969-4.303-4.575-9.545-4.818-15.727h16.591c.243 3.242 1.243 5.939 3 8.091 1.758 2.151 4.046 3.757 6.864 4.818 2.848 1.061 6.03 1.591 9.545 1.591 3.667 0 6.879-.545 9.637-1.636 2.787-1.122 4.969-2.667 6.545-4.637 1.576-2 2.379-4.333 2.409-7-.03-2.424-.742-4.424-2.136-6-1.394-1.606-3.349-2.94-5.864-4-2.485-1.09-5.394-2.06-8.727-2.909l-10.591-2.727c-7.667-1.97-13.727-4.955-18.182-8.955-4.424-4.03-6.636-9.378-6.636-16.045 0-5.485 1.485-10.288 4.454-14.41 3-4.12 7.076-7.317 12.228-9.59 5.151-2.303 10.984-3.455 17.5-3.455 6.606 0 12.393 1.152 17.363 3.455 5 2.273 8.924 5.44 11.773 9.5 2.848 4.03 4.318 8.667 4.409 13.909h-16.227Zm32.534 67.5V38.91h60.545v14.136H702.42v25.272h40.546v14.136H702.42v25.41h44.046V132h-60.909Z"/>
  <path fill="#A7A7A7" d="M457.398 86.454V100h-41.909V86.454h41.909Z"/>
  <path fill="#7E7E7E" d="M346.273 177.455V224h-5.637v-46.545h5.637ZM362.21 203v21h-5.363v-34.909h5.181v5.454h.455c.818-1.772 2.061-3.197 3.727-4.272 1.667-1.091 3.818-1.637 6.455-1.637 2.363 0 4.432.485 6.204 1.455 1.773.954 3.152 2.409 4.137 4.364.985 1.939 1.477 4.393 1.477 7.363V224h-5.364v-21.818c0-2.743-.712-4.879-2.136-6.409-1.424-1.546-3.379-2.318-5.864-2.318-1.712 0-3.242.371-4.591 1.113-1.333.743-2.386 1.826-3.159 3.25-.772 1.424-1.159 3.152-1.159 5.182Zm47.256-13.909v4.545h-18.091v-4.545h18.091Zm-12.818-8.364h5.363V214c0 1.515.22 2.652.659 3.409.455.743 1.031 1.243 1.728 1.5a6.917 6.917 0 0 0 2.25.364c.591 0 1.075-.031 1.454-.091l.909-.182 1.091 4.818c-.363.137-.871.273-1.522.409-.652.152-1.478.228-2.478.228-1.515 0-3-.326-4.454-.978-1.44-.651-2.637-1.644-3.591-2.977-.94-1.333-1.409-3.015-1.409-5.045v-34.728Zm35.147 44c-3.363 0-6.265-.742-8.704-2.227-2.424-1.5-4.296-3.591-5.614-6.273-1.303-2.697-1.954-5.833-1.954-9.409 0-3.576.651-6.727 1.954-9.454 1.318-2.743 3.152-4.879 5.5-6.409 2.364-1.546 5.121-2.319 8.273-2.319 1.818 0 3.614.303 5.386.909 1.773.607 3.387 1.591 4.841 2.955 1.455 1.348 2.614 3.136 3.478 5.364.863 2.227 1.295 4.969 1.295 8.227v2.273h-26.909v-4.637h21.454c0-1.969-.393-3.727-1.181-5.272-.773-1.546-1.879-2.766-3.319-3.66-1.424-.893-3.106-1.34-5.045-1.34-2.136 0-3.985.53-5.545 1.59a10.478 10.478 0 0 0-3.569 4.091 12.023 12.023 0 0 0-1.25 5.409v3.091c0 2.637.455 4.872 1.364 6.705.924 1.818 2.205 3.204 3.841 4.159 1.636.939 3.538 1.409 5.704 1.409 1.41 0 2.682-.197 3.819-.591a8.172 8.172 0 0 0 2.977-1.818c.833-.818 1.477-1.833 1.932-3.045l5.182 1.454a11.5 11.5 0 0 1-2.75 4.636c-1.288 1.319-2.879 2.349-4.773 3.091-1.894.728-4.023 1.091-6.387 1.091Zm36.705 13.091c-2.591 0-4.818-.333-6.682-1-1.863-.651-3.416-1.515-4.659-2.591-1.227-1.06-2.204-2.197-2.932-3.409l4.273-3a33.56 33.56 0 0 0 1.841 2.182c.742.833 1.757 1.553 3.045 2.159 1.303.621 3.008.932 5.114.932 2.818 0 5.144-.682 6.977-2.046 1.834-1.363 2.75-3.5 2.75-6.409v-7.091h-.454c-.394.637-.955 1.425-1.682 2.364-.712.924-1.743 1.75-3.091 2.477-1.333.712-3.136 1.069-5.409 1.069-2.818 0-5.349-.667-7.591-2-2.227-1.334-3.992-3.273-5.295-5.819-1.288-2.545-1.932-5.636-1.932-9.272 0-3.576.629-6.69 1.886-9.341 1.258-2.667 3.008-4.728 5.25-6.182 2.243-1.47 4.833-2.205 7.773-2.205 2.273 0 4.076.379 5.409 1.137 1.348.742 2.379 1.591 3.091 2.545.727.94 1.288 1.712 1.682 2.318h.545v-5.545h5.182V225c0 3-.682 5.439-2.046 7.318-1.348 1.894-3.166 3.28-5.454 4.159-2.273.894-4.803 1.341-7.591 1.341Zm-.182-19.182c2.152 0 3.97-.492 5.455-1.477 1.485-.985 2.613-2.401 3.386-4.25.773-1.848 1.159-4.061 1.159-6.636 0-2.515-.379-4.735-1.136-6.659-.758-1.925-1.879-3.432-3.364-4.523-1.485-1.091-3.318-1.636-5.5-1.636-2.273 0-4.166.575-5.682 1.727-1.5 1.151-2.628 2.697-3.386 4.636-.742 1.94-1.114 4.091-1.114 6.455 0 2.424.379 4.568 1.137 6.432.772 1.848 1.909 3.303 3.409 4.363 1.515 1.046 3.394 1.568 5.636 1.568ZM493.409 224v-34.909h5.182v5.273h.364c.636-1.728 1.787-3.129 3.454-4.205 1.667-1.076 3.546-1.614 5.636-1.614.394 0 .887.008 1.478.023a19.81 19.81 0 0 1 1.341.068v5.455c-.182-.046-.599-.114-1.25-.205a12.318 12.318 0 0 0-2.023-.159c-1.697 0-3.212.356-4.546 1.068a8.058 8.058 0 0 0-3.136 2.91c-.757 1.227-1.136 2.628-1.136 4.204V224h-5.364Zm34.085.818c-2.212 0-4.219-.416-6.022-1.25-1.803-.848-3.235-2.068-4.296-3.659-1.06-1.606-1.591-3.545-1.591-5.818 0-2 .394-3.621 1.182-4.864a8.346 8.346 0 0 1 3.159-2.954c1.318-.712 2.773-1.243 4.364-1.591a52.903 52.903 0 0 1 4.841-.864 214.87 214.87 0 0 1 5.159-.613c1.333-.152 2.303-.402 2.909-.75.621-.349.932-.955.932-1.819v-.181c0-2.243-.614-3.985-1.841-5.228-1.212-1.242-3.053-1.863-5.523-1.863-2.561 0-4.568.56-6.023 1.681-1.454 1.122-2.477 2.319-3.068 3.591l-5.091-1.818c.909-2.121 2.121-3.773 3.637-4.954 1.53-1.197 3.197-2.031 5-2.5a20.752 20.752 0 0 1 5.363-.728c1.121 0 2.409.137 3.864.409 1.47.258 2.886.796 4.25 1.614 1.379.818 2.523 2.053 3.432 3.705.909 1.651 1.363 3.863 1.363 6.636v23h-5.363v-4.727h-.273c-.364.757-.97 1.568-1.818 2.432-.849.863-1.977 1.598-3.387 2.204-1.409.606-3.128.909-5.159.909Zm.818-4.818c2.122 0 3.91-.417 5.364-1.25 1.47-.833 2.576-1.909 3.318-3.227.758-1.318 1.137-2.705 1.137-4.159v-4.909c-.228.272-.728.522-1.5.75-.758.212-1.637.401-2.637.568-.985.151-1.947.288-2.886.409-.924.106-1.674.197-2.25.273a20.431 20.431 0 0 0-3.909.886c-1.197.394-2.167.992-2.909 1.795-.727.788-1.091 1.864-1.091 3.228 0 1.863.689 3.272 2.068 4.227 1.394.939 3.159 1.409 5.295 1.409Zm40.154-30.909v4.545h-18.091v-4.545h18.091Zm-12.818-8.364h5.363V214c0 1.515.22 2.652.659 3.409.455.743 1.031 1.243 1.728 1.5a6.917 6.917 0 0 0 2.25.364c.591 0 1.075-.031 1.454-.091l.909-.182 1.091 4.818c-.363.137-.871.273-1.522.409-.652.152-1.478.228-2.478.228-1.515 0-3-.326-4.454-.978-1.44-.651-2.637-1.644-3.591-2.977-.94-1.333-1.409-3.015-1.409-5.045v-34.728Zm35.147 44c-3.363 0-6.265-.742-8.704-2.227-2.424-1.5-4.296-3.591-5.614-6.273-1.303-2.697-1.954-5.833-1.954-9.409 0-3.576.651-6.727 1.954-9.454 1.318-2.743 3.152-4.879 5.5-6.409 2.364-1.546 5.121-2.319 8.273-2.319 1.818 0 3.614.303 5.386.909 1.773.607 3.387 1.591 4.841 2.955 1.455 1.348 2.614 3.136 3.478 5.364.863 2.227 1.295 4.969 1.295 8.227v2.273h-26.909v-4.637h21.454c0-1.969-.393-3.727-1.181-5.272-.773-1.546-1.879-2.766-3.319-3.66-1.424-.893-3.106-1.34-5.045-1.34-2.136 0-3.985.53-5.545 1.59a10.478 10.478 0 0 0-3.569 4.091 12.023 12.023 0 0 0-1.25 5.409v3.091c0 2.637.455 4.872 1.364 6.705.924 1.818 2.205 3.204 3.841 4.159 1.636.939 3.538 1.409 5.704 1.409 1.41 0 2.682-.197 3.819-.591a8.172 8.172 0 0 0 2.977-1.818c.833-.818 1.477-1.833 1.932-3.045l5.182 1.454a11.5 11.5 0 0 1-2.75 4.636c-1.288 1.319-2.879 2.349-4.773 3.091-1.894.728-4.023 1.091-6.387 1.091Zm35.796 0c-2.909 0-5.477-.735-7.705-2.204-2.227-1.485-3.969-3.576-5.227-6.273-1.257-2.712-1.886-5.917-1.886-9.614 0-3.666.629-6.848 1.886-9.545 1.258-2.697 3.008-4.78 5.25-6.25 2.243-1.47 4.833-2.205 7.773-2.205 2.273 0 4.068.379 5.386 1.137 1.334.742 2.349 1.591 3.046 2.545.712.94 1.265 1.712 1.659 2.318h.454v-17.181h5.364V224h-5.182v-5.364h-.636c-.394.637-.955 1.44-1.682 2.409-.727.955-1.765 1.811-3.114 2.569-1.348.742-3.144 1.113-5.386 1.113Zm.727-4.818c2.152 0 3.97-.561 5.455-1.682 1.485-1.136 2.613-2.704 3.386-4.704.773-2.015 1.159-4.341 1.159-6.978 0-2.606-.379-4.886-1.136-6.84-.758-1.97-1.879-3.5-3.364-4.591-1.485-1.106-3.318-1.659-5.5-1.659-2.273 0-4.166.583-5.682 1.75-1.5 1.151-2.628 2.719-3.386 4.704-.742 1.97-1.114 4.182-1.114 6.636 0 2.485.379 4.743 1.137 6.773.772 2.015 1.909 3.621 3.409 4.818 1.515 1.182 3.394 1.773 5.636 1.773ZM671.886 224v-46.545h5.637v20.727h24.818v-20.727h5.636V224h-5.636v-20.818h-24.818V224h-5.637Zm72.83-34.909c-.273-2.303-1.379-4.091-3.318-5.364-1.94-1.272-4.318-1.909-7.137-1.909-2.06 0-3.863.334-5.409 1-1.53.667-2.727 1.584-3.591 2.75-.848 1.167-1.272 2.493-1.272 3.977 0 1.243.295 2.311.886 3.205a7.867 7.867 0 0 0 2.318 2.205c.94.575 1.924 1.053 2.955 1.431 1.03.364 1.977.659 2.841.887l4.727 1.272c1.212.319 2.561.758 4.045 1.319 1.5.56 2.932 1.325 4.296 2.295 1.379.955 2.515 2.182 3.409 3.682.894 1.5 1.341 3.341 1.341 5.523 0 2.515-.659 4.788-1.977 6.818-1.303 2.03-3.213 3.644-5.728 4.841-2.5 1.197-5.538 1.795-9.113 1.795-3.334 0-6.22-.538-8.659-1.613-2.425-1.076-4.334-2.576-5.728-4.5-1.379-1.925-2.159-4.16-2.341-6.705h5.819c.151 1.758.742 3.212 1.772 4.364 1.046 1.136 2.364 1.984 3.955 2.545 1.606.546 3.333.818 5.182.818 2.151 0 4.083-.348 5.795-1.045 1.712-.712 3.068-1.697 4.068-2.955 1-1.272 1.5-2.757 1.5-4.454 0-1.546-.432-2.803-1.295-3.773-.864-.97-2-1.758-3.409-2.364a35.916 35.916 0 0 0-4.568-1.591l-5.728-1.636c-3.636-1.045-6.515-2.538-8.636-4.477-2.121-1.94-3.182-4.477-3.182-7.614 0-2.606.705-4.879 2.114-6.818 1.424-1.955 3.333-3.47 5.727-4.545 2.409-1.091 5.098-1.637 8.068-1.637 3 0 5.667.538 8 1.614 2.334 1.06 4.182 2.515 5.546 4.363 1.378 1.849 2.106 3.947 2.181 6.296h-5.454ZM760.074 224v-46.545h28.091v5H765.71v15.727h21v5h-21V219h22.818v5h-28.454Zm81.704-34.909c-.272-2.303-1.378-4.091-3.318-5.364-1.939-1.272-4.318-1.909-7.136-1.909-2.061 0-3.864.334-5.409 1-1.531.667-2.727 1.584-3.591 2.75-.849 1.167-1.273 2.493-1.273 3.977 0 1.243.296 2.311.887 3.205a7.855 7.855 0 0 0 2.318 2.205 16.593 16.593 0 0 0 2.954 1.431c1.031.364 1.978.659 2.841.887l4.727 1.272c1.213.319 2.561.758 4.046 1.319 1.5.56 2.932 1.325 4.295 2.295 1.379.955 2.515 2.182 3.409 3.682.894 1.5 1.341 3.341 1.341 5.523 0 2.515-.659 4.788-1.977 6.818-1.303 2.03-3.212 3.644-5.727 4.841-2.5 1.197-5.538 1.795-9.114 1.795-3.333 0-6.22-.538-8.659-1.613-2.424-1.076-4.333-2.576-5.727-4.5-1.379-1.925-2.159-4.16-2.341-6.705h5.818c.152 1.758.742 3.212 1.773 4.364 1.045 1.136 2.363 1.984 3.954 2.545 1.606.546 3.334.818 5.182.818 2.152 0 4.083-.348 5.796-1.045 1.712-.712 3.068-1.697 4.068-2.955 1-1.272 1.5-2.757 1.5-4.454 0-1.546-.432-2.803-1.296-3.773-.863-.97-2-1.758-3.409-2.364a35.916 35.916 0 0 0-4.568-1.591l-5.727-1.636c-3.637-1.045-6.515-2.538-8.637-4.477-2.121-1.94-3.181-4.477-3.181-7.614 0-2.606.704-4.879 2.113-6.818 1.424-1.955 3.334-3.47 5.728-4.545 2.409-1.091 5.098-1.637 8.068-1.637 3 0 5.666.538 8 1.614 2.333 1.06 4.182 2.515 5.545 4.363 1.379 1.849 2.106 3.947 2.182 6.296h-5.455Zm18.086 48c-.909 0-1.72-.076-2.432-.227-.712-.137-1.205-.273-1.477-.409l1.363-4.728c1.303.334 2.455.455 3.455.364 1-.091 1.886-.538 2.659-1.341.788-.788 1.507-2.068 2.159-3.841l1-2.727-12.909-35.091h5.818l9.636 27.818h.364l9.636-27.818h5.819l-14.819 40c-.666 1.803-1.492 3.295-2.477 4.477-.985 1.197-2.129 2.084-3.432 2.659-1.288.576-2.742.864-4.363.864Zm56.897-40.182-4.818 1.364a8.939 8.939 0 0 0-1.341-2.341c-.575-.773-1.363-1.409-2.363-1.909s-2.281-.75-3.841-.75c-2.137 0-3.917.492-5.341 1.477-1.409.97-2.114 2.205-2.114 3.705 0 1.333.485 2.386 1.455 3.159.969.772 2.485 1.416 4.545 1.931l5.182 1.273c3.121.758 5.447 1.917 6.977 3.477 1.531 1.546 2.296 3.538 2.296 5.978 0 2-.576 3.788-1.728 5.363-1.136 1.576-2.727 2.819-4.772 3.728-2.046.909-4.425 1.363-7.137 1.363-3.56 0-6.507-.772-8.841-2.318-2.333-1.545-3.81-3.803-4.431-6.773l5.091-1.272c.484 1.878 1.401 3.288 2.75 4.227 1.363.939 3.143 1.409 5.34 1.409 2.5 0 4.485-.53 5.955-1.591 1.485-1.076 2.227-2.364 2.227-3.864 0-1.212-.424-2.227-1.272-3.045-.849-.833-2.152-1.455-3.91-1.864l-5.818-1.363c-3.197-.758-5.545-1.932-7.045-3.523-1.485-1.606-2.227-3.614-2.227-6.023 0-1.969.553-3.712 1.659-5.227 1.121-1.515 2.644-2.705 4.568-3.568 1.939-.864 4.136-1.296 6.591-1.296 3.454 0 6.166.758 8.136 2.273 1.985 1.515 3.394 3.515 4.227 6Zm23.892-7.818v4.545h-18.091v-4.545h18.091Zm-12.818-8.364h5.364V214c0 1.515.22 2.652.659 3.409.455.743 1.03 1.243 1.727 1.5a6.917 6.917 0 0 0 2.25.364c.591 0 1.076-.031 1.455-.091l.909-.182 1.091 4.818c-.364.137-.871.273-1.523.409-.651.152-1.477.228-2.477.228-1.515 0-3-.326-4.455-.978-1.439-.651-2.636-1.644-3.591-2.977-.939-1.333-1.409-3.015-1.409-5.045v-34.728Zm35.148 44c-3.364 0-6.265-.742-8.705-2.227-2.424-1.5-4.295-3.591-5.613-6.273-1.303-2.697-1.955-5.833-1.955-9.409 0-3.576.652-6.727 1.955-9.454 1.318-2.743 3.151-4.879 5.5-6.409 2.363-1.546 5.121-2.319 8.273-2.319 1.818 0 3.613.303 5.386.909 1.773.607 3.386 1.591 4.841 2.955 1.454 1.348 2.613 3.136 3.477 5.364.864 2.227 1.296 4.969 1.296 8.227v2.273h-26.91v-4.637h21.455c0-1.969-.394-3.727-1.182-5.272-.773-1.546-1.879-2.766-3.318-3.66-1.424-.893-3.106-1.34-5.045-1.34-2.137 0-3.985.53-5.546 1.59a10.475 10.475 0 0 0-3.568 4.091 12.023 12.023 0 0 0-1.25 5.409v3.091c0 2.637.454 4.872 1.364 6.705.924 1.818 2.204 3.204 3.84 4.159 1.637.939 3.538 1.409 5.705 1.409 1.409 0 2.682-.197 3.818-.591a8.164 8.164 0 0 0 2.977-1.818c.834-.818 1.478-1.833 1.932-3.045l5.182 1.454a11.477 11.477 0 0 1-2.75 4.636c-1.288 1.319-2.879 2.349-4.773 3.091-1.894.728-4.022 1.091-6.386 1.091Zm22.614-.727v-34.909h5.181v5.454h.455c.727-1.863 1.901-3.31 3.523-4.34 1.621-1.046 3.568-1.569 5.844-1.569 2.3 0 4.22.523 5.75 1.569 1.54 1.03 2.75 2.477 3.61 4.34h.36c.9-1.803 2.24-3.234 4.03-4.295 1.78-1.076 3.93-1.614 6.43-1.614 3.12 0 5.67.978 7.66 2.932 1.98 1.94 2.97 4.962 2.97 9.068V224h-5.36v-23.364c0-2.575-.7-4.416-2.11-5.522-1.41-1.106-3.07-1.659-4.98-1.659-2.45 0-4.36.742-5.7 2.227-1.35 1.47-2.03 3.333-2.03 5.591V224h-5.45v-23.909c0-1.985-.65-3.583-1.93-4.796-1.29-1.227-2.95-1.84-4.981-1.84a7.355 7.355 0 0 0-3.909 1.113c-1.197.743-2.166 1.773-2.909 3.091-.727 1.303-1.091 2.811-1.091 4.523V224h-5.363Z"/>
  <path fill="#F80000" d="M183.029 73.56c0-11.894-16.418-15.047-20.774-3.918-10.537 26.92-18.215 51.003-18.215 64.023 0 41.495 34.912 75.134 77.978 75.134 43.066 0 77.977-33.639 77.977-75.134 0-13.988-8.861-40.745-20.61-70.072-15.219-37.99-22.829-56.986-32.222-58.009-3.006-.327-6.285.261-8.966 1.61-8.381 4.213-8.381 24.93-8.381 66.366 0 12.448-10.474 22.54-23.394 22.54-12.919 0-23.393-10.091-23.393-22.54Z"/>
  <path stroke="#B4B4B4" stroke-width="10" d="M183.029 73.56c0-11.894-16.418-15.047-20.774-3.918-10.537 26.92-18.215 51.003-18.215 64.023 0 41.495 34.912 75.134 77.978 75.134 43.066 0 77.977-33.639 77.977-75.134 0-13.988-8.861-40.745-20.61-70.072-15.219-37.99-22.829-56.986-32.222-58.009-3.006-.327-6.285.261-8.966 1.61-8.381 4.213-8.381 24.93-8.381 66.366 0 12.448-10.474 22.54-23.394 22.54-12.919 0-23.393-10.091-23.393-22.54Z"/>
  <path fill="#002E9F" stroke="#002E9F" d="m62.268 147.715-8.396 22.453 16.962-16.412c5.865-5.674 14.108-7.765 21.774-5.523 16.609 4.858 33.576-6.666 36.163-24.564l4.964-34.349-12.215 25.485c-6.028 12.577-19.215 19.532-32.411 17.094-11.378-2.102-22.617 4.521-26.841 15.816Z"/>
  <path fill="#01A425" stroke="#01A425" d="m224.234 258.531 8.007-1.017-38.476-4.62a130.016 130.016 0 0 1-29.453-7.099l-35.758-13.176 6.123 4.173c26.384 17.982 58.239 25.714 89.557 21.739Z"/>
  <path fill="red" stroke="red" d="m286.108 232.956 3.314-1.283-53.141.546c-28.194.29-56.076-7.284-80.585-21.892-29.016-17.293-62.632-24.657-95.747-20.973l-55.73 6.199 51.173 5.4c21.595 2.279 42.595 8.95 61.735 19.61 52.257 29.104 114.101 33.64 168.981 12.393Z"/>
</svg>
